<svg width="40" height="40" viewBox="0 0 40 40" fill="none" xmlns="http://www.w3.org/2000/svg">
<path d="M26.6666 28.3332V31.6666H3.33331V28.3332C3.33331 28.3332 3.33331 21.6666 15 21.6666C26.6666 21.6666 26.6666 28.3332 26.6666 28.3332ZM20.8333 12.4999C20.8333 11.3462 20.4912 10.2184 19.8502 9.25907C19.2092 8.29979 18.2982 7.55211 17.2323 7.1106C16.1664 6.66909 14.9935 6.55357 13.862 6.77865C12.7304 7.00373 11.691 7.5593 10.8752 8.37511C10.0594 9.19092 9.50381 10.2303 9.27873 11.3619C9.05365 12.4934 9.16917 13.6663 9.61068 14.7322C10.0522 15.7981 10.7999 16.7092 11.7592 17.3501C12.7184 17.9911 13.8463 18.3332 15 18.3332C16.5471 18.3332 18.0308 17.7186 19.1248 16.6247C20.2187 15.5307 20.8333 14.047 20.8333 12.4999ZM26.5666 21.6666C27.5912 22.4595 28.4296 23.4673 29.0228 24.6191C29.6159 25.7709 29.9495 27.0387 30 28.3332V31.6666H36.6666V28.3332C36.6666 28.3332 36.6666 22.2832 26.5666 21.6666ZM25 6.66657C23.8529 6.66123 22.7313 7.00412 21.7833 7.6499C22.7957 9.06446 23.3401 10.7604 23.3401 12.4999C23.3401 14.2394 22.7957 15.9353 21.7833 17.3499C22.7313 17.9957 23.8529 18.3386 25 18.3332C26.5471 18.3332 28.0308 17.7186 29.1248 16.6247C30.2187 15.5307 30.8333 14.047 30.8333 12.4999C30.8333 10.9528 30.2187 9.46907 29.1248 8.37511C28.0308 7.28115 26.5471 6.66657 25 6.66657Z" fill="white"/>
</svg>
